# xmcd CD database file
#
# Track frame offsets:
#	150
#	13487
#	29100
#	40970
#	56420
#	67627
#	80290
#	91877
#	105102
#	116285
#	128312
#	146245
#	163232
#	173552
#	185957
#	199247
#	208762
#	225810
#	239132
#	256162
#
# Disc length: 3557 seconds
#
# Revision: 0
# Processed by: cddbd v1.5.2PL0 Copyright (c) Steve Scherf et al.
# Submitted via: CDex 1.79
#
DISCID=0d0de314
DTITLE=Various Artist - The greatest country love songs ever vol 2
DYEAR=1900
DGENRE=Country
TTITLE0=Rose garden
TTITLE1=Tears
TTITLE2=Stand by your man
TTITLE3=Sweet dreams
TTITLE4=Am I losing you
TTITLE5=Help me make it through the night
TTITLE6=I've loved and lost again
TTITLE7=Take time to know her
TTITLE8=It's only make believe
TTITLE9=Fools rush in
TTITLE10=Country medley
TTITLE11=Crying in the rain
TTITLE12=Your cheatin' heart
TTITLE13=Seven spanish angels
TTITLE14=Back in baby's arms - she's got you
TTITLE15=Ramblin' rose
TTITLE16=Red river valley - my old house
TTITLE17=Raindrops keep fallin' on my head
TTITLE18=Blue bayou
TTITLE19=Always something there to remind me
EXTD=
EXTT0=
EXTT1=
EXTT2=
EXTT3=
EXTT4=
EXTT5=
EXTT6=
EXTT7=
EXTT8=
EXTT9=
EXTT10=
EXTT11=
EXTT12=
EXTT13=
EXTT14=
EXTT15=
EXTT16=
EXTT17=
EXTT18=
EXTT19=
PLAYORDER=
